<?xml version="1.0" encoding="UTF-8"?>
<svg xmlns="http://www.w3.org/2000/svg" xmlns:xlink="http://www.w3.org/1999/xlink" width="186.153091pt" height="87.364807pt" viewBox="0 0 186.153091 87.364807" version="1.1">
<defs>
<clipPath id="clip1">
  <path d="M 0 15 L 186.152344 15 L 186.152344 87.363281 L 0 87.363281 Z M 0 15 "/>
</clipPath>
<clipPath id="clip2">
  <path d="M 177 67 L 186.152344 67 L 186.152344 68 L 177 68 Z M 177 67 "/>
</clipPath>
</defs>
<g id="surface1">
<path style="fill-rule:nonzero;fill:rgb(27.058411%,63.136292%,94.116211%);fill-opacity:1;stroke-width:0.43903;stroke-linecap:round;stroke-linejoin:round;stroke:rgb(0%,0%,0%);stroke-opacity:1;stroke-miterlimit:10;" d="M 8.125 4.167969 L 31.832031 4.167969 L 31.832031 79.242188 L 8.125 79.242188 Z M 8.125 4.167969 "/>
<path style="fill-rule:nonzero;fill:rgb(47.058105%,76.077271%,27.058411%);fill-opacity:1;stroke-width:0.43903;stroke-linecap:round;stroke-linejoin:round;stroke:rgb(0%,0%,0%);stroke-opacity:1;stroke-miterlimit:10;" d="M 102.953125 4.167969 L 150.367188 4.167969 L 150.367188 79.242188 L 102.953125 79.242188 Z M 102.953125 4.167969 "/>
<path style="fill-rule:nonzero;fill:rgb(47.058105%,76.077271%,27.058411%);fill-opacity:1;stroke-width:0.43903;stroke-linecap:round;stroke-linejoin:round;stroke:rgb(0%,0%,0%);stroke-opacity:1;stroke-miterlimit:10;" d="M 110.855469 8.121094 L 142.464844 8.121094 L 142.464844 23.925781 L 110.855469 23.925781 Z M 110.855469 8.121094 "/>
<path style=" stroke:none;fill-rule:nonzero;fill:rgb(0%,0%,0%);fill-opacity:1;" d="M 115.953125 15.300781 L 115.953125 20.316406 L 119.28125 20.316406 L 119.28125 19.753906 L 116.625 19.753906 L 116.625 15.300781 Z M 115.953125 15.300781 "/>
<path style=" stroke:none;fill-rule:nonzero;fill:rgb(0%,0%,0%);fill-opacity:1;" d="M 122.765625 16.769531 L 123.390625 16.769531 C 123.390625 16.488281 123.335938 16.25 123.234375 16.050781 C 123.140625 15.855469 123.007812 15.691406 122.84375 15.566406 C 122.675781 15.433594 122.484375 15.332031 122.265625 15.269531 C 122.046875 15.207031 121.804688 15.175781 121.546875 15.175781 C 121.316406 15.175781 121.09375 15.207031 120.875 15.269531 C 120.65625 15.324219 120.457031 15.410156 120.28125 15.535156 C 120.113281 15.652344 119.976562 15.800781 119.875 15.988281 C 119.78125 16.175781 119.734375 16.394531 119.734375 16.644531 C 119.734375 16.875 119.773438 17.066406 119.859375 17.222656 C 119.953125 17.371094 120.070312 17.496094 120.21875 17.597656 C 120.375 17.691406 120.546875 17.769531 120.734375 17.832031 C 120.929688 17.886719 121.128906 17.9375 121.328125 17.988281 C 121.523438 18.03125 121.71875 18.074219 121.90625 18.113281 C 122.101562 18.15625 122.28125 18.214844 122.4375 18.285156 C 122.59375 18.347656 122.710938 18.4375 122.796875 18.550781 C 122.890625 18.65625 122.9375 18.792969 122.9375 18.957031 C 122.9375 19.144531 122.898438 19.296875 122.828125 19.410156 C 122.753906 19.527344 122.65625 19.621094 122.53125 19.691406 C 122.40625 19.753906 122.265625 19.800781 122.109375 19.832031 C 121.960938 19.863281 121.816406 19.878906 121.671875 19.878906 C 121.484375 19.878906 121.300781 19.859375 121.125 19.816406 C 120.945312 19.765625 120.789062 19.691406 120.65625 19.597656 C 120.519531 19.496094 120.410156 19.371094 120.328125 19.222656 C 120.242188 19.066406 120.203125 18.878906 120.203125 18.660156 L 119.578125 18.660156 C 119.578125 18.972656 119.628906 19.238281 119.734375 19.457031 C 119.847656 19.675781 120 19.859375 120.1875 20.003906 C 120.375 20.152344 120.59375 20.253906 120.84375 20.316406 C 121.09375 20.386719 121.359375 20.425781 121.640625 20.425781 C 121.867188 20.425781 122.097656 20.398438 122.328125 20.347656 C 122.566406 20.296875 122.78125 20.214844 122.96875 20.097656 C 123.15625 19.972656 123.304688 19.816406 123.421875 19.628906 C 123.546875 19.433594 123.609375 19.203125 123.609375 18.941406 C 123.609375 18.691406 123.5625 18.484375 123.46875 18.316406 C 123.375 18.152344 123.25 18.015625 123.09375 17.910156 C 122.945312 17.808594 122.773438 17.722656 122.578125 17.660156 C 122.390625 17.597656 122.195312 17.546875 122 17.503906 C 121.800781 17.453125 121.601562 17.40625 121.40625 17.363281 C 121.21875 17.324219 121.046875 17.269531 120.890625 17.207031 C 120.742188 17.144531 120.625 17.066406 120.53125 16.972656 C 120.4375 16.878906 120.390625 16.753906 120.390625 16.597656 C 120.390625 16.433594 120.421875 16.296875 120.484375 16.191406 C 120.546875 16.078125 120.628906 15.988281 120.734375 15.925781 C 120.847656 15.855469 120.972656 15.808594 121.109375 15.785156 C 121.242188 15.753906 121.378906 15.738281 121.515625 15.738281 C 121.867188 15.738281 122.15625 15.824219 122.375 15.988281 C 122.59375 16.144531 122.722656 16.40625 122.765625 16.769531 Z M 122.765625 16.769531 "/>
<path style=" stroke:none;fill-rule:nonzero;fill:rgb(0%,0%,0%);fill-opacity:1;" d="M 125.550781 15.863281 L 125.550781 20.316406 L 126.222656 20.316406 L 126.222656 15.863281 L 127.894531 15.863281 L 127.894531 15.300781 L 123.878906 15.300781 L 123.878906 15.863281 Z M 125.550781 15.863281 "/>
<path style=" stroke:none;fill-rule:nonzero;fill:rgb(0%,0%,0%);fill-opacity:1;" d="M 128.457031 15.300781 L 128.457031 20.316406 L 129.082031 20.316406 L 129.082031 16.144531 L 129.097656 16.144531 L 130.675781 20.316406 L 131.238281 20.316406 L 132.816406 16.144531 L 132.816406 20.316406 L 133.457031 20.316406 L 133.457031 15.300781 L 132.535156 15.300781 L 130.957031 19.519531 L 129.363281 15.300781 Z M 128.457031 15.300781 "/>
<path style=" stroke:none;fill-rule:nonzero;fill:rgb(0%,0%,0%);fill-opacity:1;" d="M 136.511719 16.800781 L 136.511719 11.816406 L 136.058594 11.816406 C 136.027344 12.003906 135.964844 12.160156 135.871094 12.285156 C 135.785156 12.402344 135.675781 12.496094 135.542969 12.566406 C 135.417969 12.640625 135.269531 12.691406 135.105469 12.722656 C 134.949219 12.746094 134.785156 12.753906 134.621094 12.753906 L 134.621094 13.222656 L 135.917969 13.222656 L 135.917969 16.800781 Z M 136.511719 16.800781 "/>
<path style="fill-rule:nonzero;fill:rgb(89.01825%,72.155762%,18.823242%);fill-opacity:1;stroke-width:0.43903;stroke-linecap:round;stroke-linejoin:round;stroke:rgb(0%,0%,0%);stroke-opacity:1;stroke-miterlimit:10;" d="M 47.636719 4.167969 L 71.34375 4.167969 L 71.34375 79.242188 L 47.636719 79.242188 Z M 47.636719 4.167969 "/>
<path style=" stroke:none;fill-rule:nonzero;fill:rgb(0%,0%,0%);fill-opacity:1;" d="M 59.152344 41.132812 L 59.152344 44.242188 L 59.746094 44.242188 L 59.746094 41.132812 L 60.449219 41.132812 L 60.449219 40.601562 L 59.746094 40.601562 L 59.746094 40.101562 C 59.746094 39.945312 59.78125 39.84375 59.855469 39.789062 C 59.9375 39.726562 60.050781 39.695312 60.199219 39.695312 C 60.25 39.695312 60.308594 39.703125 60.371094 39.710938 C 60.433594 39.710938 60.488281 39.722656 60.542969 39.742188 L 60.542969 39.226562 C 60.480469 39.207031 60.410156 39.191406 60.339844 39.179688 C 60.265625 39.171875 60.203125 39.164062 60.152344 39.164062 C 59.816406 39.164062 59.566406 39.242188 59.402344 39.398438 C 59.234375 39.546875 59.152344 39.769531 59.152344 40.070312 L 59.152344 40.601562 L 58.527344 40.601562 L 58.527344 41.132812 Z M 59.152344 41.132812 "/>
<path style="fill-rule:nonzero;fill:rgb(47.058105%,76.077271%,27.058411%);fill-opacity:1;stroke-width:0.43903;stroke-linecap:round;stroke-linejoin:round;stroke:rgb(0%,0%,0%);stroke-opacity:1;stroke-miterlimit:10;" d="M 110.855469 59.484375 L 142.464844 59.484375 L 142.464844 75.292969 L 110.855469 75.292969 Z M 110.855469 59.484375 "/>
<path style=" stroke:none;fill-rule:nonzero;fill:rgb(0%,0%,0%);fill-opacity:1;" d="M 115.953125 66.664062 L 115.953125 71.679688 L 119.28125 71.679688 L 119.28125 71.117188 L 116.625 71.117188 L 116.625 66.664062 Z M 115.953125 66.664062 "/>
<path style=" stroke:none;fill-rule:nonzero;fill:rgb(0%,0%,0%);fill-opacity:1;" d="M 122.765625 68.132812 L 123.390625 68.132812 C 123.390625 67.851562 123.335938 67.613281 123.234375 67.414062 C 123.140625 67.21875 123.007812 67.054688 122.84375 66.929688 C 122.675781 66.796875 122.484375 66.695312 122.265625 66.632812 C 122.046875 66.570312 121.804688 66.539062 121.546875 66.539062 C 121.316406 66.539062 121.09375 66.570312 120.875 66.632812 C 120.65625 66.6875 120.457031 66.773438 120.28125 66.898438 C 120.113281 67.015625 119.976562 67.164062 119.875 67.351562 C 119.78125 67.539062 119.734375 67.757812 119.734375 68.007812 C 119.734375 68.238281 119.773438 68.429688 119.859375 68.585938 C 119.953125 68.734375 120.070312 68.859375 120.21875 68.960938 C 120.375 69.054688 120.546875 69.132812 120.734375 69.195312 C 120.929688 69.25 121.128906 69.300781 121.328125 69.351562 C 121.523438 69.394531 121.71875 69.4375 121.90625 69.476562 C 122.101562 69.519531 122.28125 69.578125 122.4375 69.648438 C 122.59375 69.710938 122.710938 69.800781 122.796875 69.914062 C 122.890625 70.019531 122.9375 70.15625 122.9375 70.320312 C 122.9375 70.507812 122.898438 70.660156 122.828125 70.773438 C 122.753906 70.890625 122.65625 70.984375 122.53125 71.054688 C 122.40625 71.117188 122.265625 71.164062 122.109375 71.195312 C 121.960938 71.226562 121.816406 71.242188 121.671875 71.242188 C 121.484375 71.242188 121.300781 71.222656 121.125 71.179688 C 120.945312 71.128906 120.789062 71.054688 120.65625 70.960938 C 120.519531 70.859375 120.410156 70.734375 120.328125 70.585938 C 120.242188 70.429688 120.203125 70.242188 120.203125 70.023438 L 119.578125 70.023438 C 119.578125 70.335938 119.628906 70.601562 119.734375 70.820312 C 119.847656 71.039062 120 71.222656 120.1875 71.367188 C 120.375 71.515625 120.59375 71.617188 120.84375 71.679688 C 121.09375 71.75 121.359375 71.789062 121.640625 71.789062 C 121.867188 71.789062 122.097656 71.761719 122.328125 71.710938 C 122.566406 71.660156 122.78125 71.578125 122.96875 71.460938 C 123.15625 71.335938 123.304688 71.179688 123.421875 70.992188 C 123.546875 70.796875 123.609375 70.566406 123.609375 70.304688 C 123.609375 70.054688 123.5625 69.847656 123.46875 69.679688 C 123.375 69.515625 123.25 69.378906 123.09375 69.273438 C 122.945312 69.171875 122.773438 69.085938 122.578125 69.023438 C 122.390625 68.960938 122.195312 68.910156 122 68.867188 C 121.800781 68.816406 121.601562 68.769531 121.40625 68.726562 C 121.21875 68.6875 121.046875 68.632812 120.890625 68.570312 C 120.742188 68.507812 120.625 68.429688 120.53125 68.335938 C 120.4375 68.242188 120.390625 68.117188 120.390625 67.960938 C 120.390625 67.796875 120.421875 67.660156 120.484375 67.554688 C 120.546875 67.441406 120.628906 67.351562 120.734375 67.289062 C 120.847656 67.21875 120.972656 67.171875 121.109375 67.148438 C 121.242188 67.117188 121.378906 67.101562 121.515625 67.101562 C 121.867188 67.101562 122.15625 67.1875 122.375 67.351562 C 122.59375 67.507812 122.722656 67.769531 122.765625 68.132812 Z M 122.765625 68.132812 "/>
<path style=" stroke:none;fill-rule:nonzero;fill:rgb(0%,0%,0%);fill-opacity:1;" d="M 125.550781 67.226562 L 125.550781 71.679688 L 126.222656 71.679688 L 126.222656 67.226562 L 127.894531 67.226562 L 127.894531 66.664062 L 123.878906 66.664062 L 123.878906 67.226562 Z M 125.550781 67.226562 "/>
<path style=" stroke:none;fill-rule:nonzero;fill:rgb(0%,0%,0%);fill-opacity:1;" d="M 128.457031 66.664062 L 128.457031 71.679688 L 129.082031 71.679688 L 129.082031 67.507812 L 129.097656 67.507812 L 130.675781 71.679688 L 131.238281 71.679688 L 132.816406 67.507812 L 132.816406 71.679688 L 133.457031 71.679688 L 133.457031 66.664062 L 132.535156 66.664062 L 130.957031 70.882812 L 129.363281 66.664062 Z M 128.457031 66.664062 "/>
<path style=" stroke:none;fill-rule:nonzero;fill:rgb(0%,0%,0%);fill-opacity:1;" d="M 134.464844 64.527344 L 134.464844 68.167969 L 135.058594 68.167969 L 135.058594 66.121094 C 135.058594 65.957031 135.078125 65.804688 135.121094 65.667969 C 135.171875 65.523438 135.238281 65.402344 135.324219 65.308594 C 135.417969 65.207031 135.527344 65.128906 135.652344 65.074219 C 135.785156 65.011719 135.949219 64.980469 136.136719 64.980469 C 136.363281 64.980469 136.542969 65.050781 136.667969 65.183594 C 136.800781 65.308594 136.871094 65.488281 136.871094 65.714844 L 136.871094 68.167969 L 137.464844 68.167969 L 137.464844 65.777344 C 137.464844 65.582031 137.441406 65.402344 137.402344 65.246094 C 137.371094 65.082031 137.300781 64.941406 137.199219 64.824219 C 137.105469 64.710938 136.972656 64.621094 136.808594 64.558594 C 136.652344 64.488281 136.453125 64.449219 136.214844 64.449219 C 135.683594 64.449219 135.292969 64.667969 135.042969 65.105469 L 135.027344 65.105469 L 135.027344 64.527344 Z M 134.464844 64.527344 "/>
<path style="fill:none;stroke-width:0.43903;stroke-linecap:round;stroke-linejoin:round;stroke:rgb(0%,0%,0%);stroke-opacity:1;stroke-dasharray:1.75612,1.75612;stroke-miterlimit:10;" d="M 71.34375 67.386719 L 106.511719 67.386719 "/>
<path style="fill-rule:nonzero;fill:rgb(0%,0%,0%);fill-opacity:1;stroke-width:0.43903;stroke-linecap:butt;stroke-linejoin:miter;stroke:rgb(0%,0%,0%);stroke-opacity:1;stroke-miterlimit:10;" d="M 110.023438 67.386719 L 106.511719 66.070312 L 106.511719 68.707031 Z M 110.023438 67.386719 "/>
<path style="fill:none;stroke-width:0.43903;stroke-linecap:round;stroke-linejoin:round;stroke:rgb(0%,0%,0%);stroke-opacity:1;stroke-dasharray:1.75612,1.75612;stroke-miterlimit:10;" d="M 71.34375 16.023438 L 106.511719 16.023438 "/>
<path style="fill-rule:nonzero;fill:rgb(0%,0%,0%);fill-opacity:1;stroke-width:0.43903;stroke-linecap:butt;stroke-linejoin:miter;stroke:rgb(0%,0%,0%);stroke-opacity:1;stroke-miterlimit:10;" d="M 110.023438 16.023438 L 106.511719 14.703125 L 106.511719 17.339844 Z M 110.023438 16.023438 "/>
<path style=" stroke:none;fill-rule:nonzero;fill:rgb(0%,0%,0%);fill-opacity:1;" d="M 83.925781 7.144531 L 88.222656 7.144531 L 86.457031 12.191406 L 85.722656 12.191406 Z M 84.785156 7.707031 L 86.097656 11.535156 L 87.378906 7.707031 Z M 84.785156 7.707031 "/>
<path style=" stroke:none;fill-rule:nonzero;fill:rgb(0%,0%,0%);fill-opacity:1;" d="M 89.710938 9.558594 L 89.710938 5.824219 L 89.367188 5.824219 C 89.34375 5.972656 89.296875 6.089844 89.226562 6.183594 C 89.164062 6.269531 89.078125 6.335938 88.976562 6.386719 C 88.882812 6.441406 88.773438 6.476562 88.648438 6.496094 C 88.53125 6.519531 88.414062 6.527344 88.289062 6.527344 L 88.289062 6.886719 L 89.257812 6.886719 L 89.257812 9.558594 Z M 89.710938 9.558594 "/>
<path style="fill:none;stroke-width:0.43903;stroke-linecap:round;stroke-linejoin:round;stroke:rgb(0%,0%,0%);stroke-opacity:1;stroke-miterlimit:10;" d="M 27.878906 15.582031 L 43.289062 15.582031 "/>
<path style="fill-rule:nonzero;fill:rgb(0%,0%,0%);fill-opacity:1;stroke-width:0.43903;stroke-linecap:butt;stroke-linejoin:miter;stroke:rgb(0%,0%,0%);stroke-opacity:1;stroke-miterlimit:10;" d="M 46.800781 15.582031 L 43.289062 14.265625 L 43.289062 16.898438 Z M 46.800781 15.582031 "/>
<path style="fill:none;stroke-width:0.43903;stroke-linecap:round;stroke-linejoin:round;stroke:rgb(0%,0%,0%);stroke-opacity:1;stroke-miterlimit:10;" d="M 27.878906 66.949219 L 43.289062 66.949219 "/>
<path style="fill-rule:nonzero;fill:rgb(0%,0%,0%);fill-opacity:1;stroke-width:0.43903;stroke-linecap:butt;stroke-linejoin:miter;stroke:rgb(0%,0%,0%);stroke-opacity:1;stroke-miterlimit:10;" d="M 46.800781 66.949219 L 43.289062 65.632812 L 43.289062 68.265625 Z M 46.800781 66.949219 "/>
<path style="fill:none;stroke-width:0.43903;stroke-linecap:round;stroke-linejoin:round;stroke:rgb(0%,0%,0%);stroke-opacity:1;stroke-miterlimit:10;" d="M 142.464844 16.023438 L 157.875 16.023438 "/>
<path style="fill-rule:nonzero;fill:rgb(0%,0%,0%);fill-opacity:1;stroke-width:0.43903;stroke-linecap:butt;stroke-linejoin:miter;stroke:rgb(0%,0%,0%);stroke-opacity:1;stroke-miterlimit:10;" d="M 161.386719 16.023438 L 157.875 14.703125 L 157.875 17.339844 Z M 161.386719 16.023438 "/>
<path style="fill:none;stroke-width:0.43903;stroke-linecap:round;stroke-linejoin:round;stroke:rgb(0%,0%,0%);stroke-opacity:1;stroke-miterlimit:10;" d="M 142.464844 67.386719 L 157.875 67.386719 "/>
<path style="fill-rule:nonzero;fill:rgb(0%,0%,0%);fill-opacity:1;stroke-width:0.43903;stroke-linecap:butt;stroke-linejoin:miter;stroke:rgb(0%,0%,0%);stroke-opacity:1;stroke-miterlimit:10;" d="M 161.386719 67.386719 L 157.875 66.070312 L 157.875 68.707031 Z M 161.386719 67.386719 "/>
<path style="fill-rule:nonzero;fill:rgb(27.058411%,63.136292%,94.116211%);fill-opacity:1;stroke-width:0.43903;stroke-linecap:round;stroke-linejoin:round;stroke:rgb(0%,0%,0%);stroke-opacity:1;stroke-miterlimit:10;" d="M 25.566406 10.433594 C 28.652344 13.519531 28.652344 18.523438 25.566406 21.609375 C 22.480469 24.695312 17.476562 24.695312 14.390625 21.609375 C 11.304688 18.523438 11.304688 13.519531 14.390625 10.433594 C 17.476562 7.347656 22.480469 7.347656 25.566406 10.433594 "/>
<path style=" stroke:none;fill-rule:nonzero;fill:rgb(18.823242%,18.823242%,18.823242%);fill-opacity:1;" d="M 19.121094 17.519531 C 19.121094 17.074219 19.0625 16.703125 18.949219 16.410156 C 18.824219 16.121094 18.59375 15.972656 18.261719 15.972656 C 17.9375 15.972656 17.714844 16.121094 17.589844 16.410156 C 17.464844 16.703125 17.402344 17.074219 17.402344 17.519531 Z M 16.808594 17.785156 C 16.808594 17.484375 16.832031 17.199219 16.886719 16.925781 C 16.925781 16.667969 17.003906 16.433594 17.121094 16.222656 C 17.222656 16.003906 17.371094 15.832031 17.558594 15.707031 C 17.746094 15.59375 17.980469 15.53125 18.261719 15.519531 C 18.542969 15.53125 18.777344 15.59375 18.964844 15.707031 C 19.152344 15.832031 19.300781 16.003906 19.417969 16.222656 C 19.519531 16.433594 19.597656 16.667969 19.652344 16.925781 C 19.691406 17.199219 19.714844 17.484375 19.714844 17.785156 C 19.714844 18.046875 19.703125 18.308594 19.683594 18.566406 C 19.640625 18.828125 19.574219 19.066406 19.480469 19.285156 C 19.386719 19.503906 19.238281 19.683594 19.042969 19.816406 C 18.84375 19.953125 18.582031 20.023438 18.261719 20.035156 C 17.9375 20.023438 17.683594 19.953125 17.496094 19.816406 C 17.296875 19.683594 17.152344 19.503906 17.058594 19.285156 C 16.953125 19.066406 16.890625 18.828125 16.871094 18.566406 C 16.828125 18.308594 16.808594 18.046875 16.808594 17.785156 Z M 17.402344 17.957031 C 17.402344 18.449219 17.457031 18.839844 17.574219 19.128906 C 17.6875 19.433594 17.917969 19.589844 18.261719 19.597656 C 18.605469 19.589844 18.839844 19.433594 18.964844 19.128906 C 19.078125 18.839844 19.128906 18.449219 19.121094 17.957031 Z M 17.402344 17.957031 "/>
<path style=" stroke:none;fill-rule:nonzero;fill:rgb(18.823242%,18.823242%,18.823242%);fill-opacity:1;" d="M 20.742188 13.855469 L 20.742188 13.449219 C 21.125 13.410156 21.398438 13.347656 21.554688 13.261719 C 21.710938 13.167969 21.824219 12.957031 21.898438 12.621094 L 22.320312 12.621094 L 22.320312 16.902344 L 21.742188 16.902344 L 21.742188 13.855469 Z M 20.742188 13.855469 "/>
<path style="fill-rule:nonzero;fill:rgb(27.058411%,63.136292%,94.116211%);fill-opacity:1;stroke-width:0.43903;stroke-linecap:round;stroke-linejoin:round;stroke:rgb(0%,0%,0%);stroke-opacity:1;stroke-miterlimit:10;" d="M 25.566406 61.800781 C 28.652344 64.886719 28.652344 69.890625 25.566406 72.976562 C 22.480469 76.0625 17.476562 76.0625 14.390625 72.976562 C 11.304688 69.890625 11.304688 64.886719 14.390625 61.800781 C 17.476562 58.714844 22.480469 58.714844 25.566406 61.800781 "/>
<path style=" stroke:none;fill-rule:nonzero;fill:rgb(18.823242%,18.823242%,18.823242%);fill-opacity:1;" d="M 19.121094 68.886719 C 19.121094 68.441406 19.0625 68.070312 18.949219 67.777344 C 18.824219 67.488281 18.59375 67.339844 18.261719 67.339844 C 17.9375 67.339844 17.714844 67.488281 17.589844 67.777344 C 17.464844 68.070312 17.402344 68.441406 17.402344 68.886719 Z M 16.808594 69.152344 C 16.808594 68.851562 16.832031 68.566406 16.886719 68.292969 C 16.925781 68.035156 17.003906 67.800781 17.121094 67.589844 C 17.222656 67.371094 17.371094 67.199219 17.558594 67.074219 C 17.746094 66.960938 17.980469 66.898438 18.261719 66.886719 C 18.542969 66.898438 18.777344 66.960938 18.964844 67.074219 C 19.152344 67.199219 19.300781 67.371094 19.417969 67.589844 C 19.519531 67.800781 19.597656 68.035156 19.652344 68.292969 C 19.691406 68.566406 19.714844 68.851562 19.714844 69.152344 C 19.714844 69.414062 19.703125 69.675781 19.683594 69.933594 C 19.640625 70.195312 19.574219 70.433594 19.480469 70.652344 C 19.386719 70.871094 19.238281 71.050781 19.042969 71.183594 C 18.84375 71.320312 18.582031 71.390625 18.261719 71.402344 C 17.9375 71.390625 17.683594 71.320312 17.496094 71.183594 C 17.296875 71.050781 17.152344 70.871094 17.058594 70.652344 C 16.953125 70.433594 16.890625 70.195312 16.871094 69.933594 C 16.828125 69.675781 16.808594 69.414062 16.808594 69.152344 Z M 17.402344 69.324219 C 17.402344 69.816406 17.457031 70.207031 17.574219 70.496094 C 17.6875 70.800781 17.917969 70.957031 18.261719 70.964844 C 18.605469 70.957031 18.839844 70.800781 18.964844 70.496094 C 19.078125 70.207031 19.128906 69.816406 19.121094 69.324219 Z M 17.402344 69.324219 "/>
<path style=" stroke:none;fill-rule:nonzero;fill:rgb(18.823242%,18.823242%,18.823242%);fill-opacity:1;" d="M 20.539062 65.046875 L 21.054688 65.046875 L 21.054688 65.515625 C 21.210938 65.328125 21.371094 65.195312 21.539062 65.109375 C 21.703125 65.027344 21.890625 64.984375 22.101562 64.984375 C 22.558594 64.984375 22.867188 65.140625 23.023438 65.453125 C 23.117188 65.632812 23.164062 65.882812 23.164062 66.203125 L 23.164062 68.265625 L 22.617188 68.265625 L 22.617188 66.234375 C 22.617188 66.046875 22.585938 65.890625 22.523438 65.765625 C 22.429688 65.570312 22.257812 65.46875 22.007812 65.46875 C 21.882812 65.46875 21.777344 65.480469 21.695312 65.5 C 21.539062 65.554688 21.40625 65.640625 21.304688 65.765625 C 21.210938 65.882812 21.148438 65.996094 21.117188 66.109375 C 21.09375 66.214844 21.085938 66.371094 21.085938 66.578125 L 21.085938 68.265625 L 20.539062 68.265625 Z M 20.539062 65.046875 "/>
<path style="fill-rule:nonzero;fill:rgb(100%,100%,100%);fill-opacity:1;stroke-width:0.43903;stroke-linecap:round;stroke-linejoin:round;stroke:rgb(0%,0%,0%);stroke-opacity:1;stroke-miterlimit:10;" d="M 175.714844 10.433594 C 178.800781 13.519531 178.800781 18.523438 175.714844 21.609375 C 172.628906 24.695312 167.625 24.695312 164.539062 21.609375 C 161.449219 18.523438 161.449219 13.519531 164.539062 10.433594 C 167.625 7.347656 172.628906 7.347656 175.714844 10.433594 "/>
<path style=" stroke:none;fill-rule:nonzero;fill:rgb(0%,0%,0%);fill-opacity:1;" d="M 170.363281 16.542969 L 170.363281 14.996094 L 169.894531 14.996094 L 169.894531 16.542969 L 168.363281 16.542969 L 168.363281 17.011719 L 169.894531 17.011719 L 169.894531 18.558594 L 170.363281 18.558594 L 170.363281 17.011719 L 171.894531 17.011719 L 171.894531 16.542969 Z M 170.363281 16.542969 "/>
<path style="fill-rule:nonzero;fill:rgb(100%,100%,100%);fill-opacity:1;stroke-width:0.43903;stroke-linecap:round;stroke-linejoin:round;stroke:rgb(0%,0%,0%);stroke-opacity:1;stroke-miterlimit:10;" d="M 175.714844 61.800781 C 178.800781 64.886719 178.800781 69.890625 175.714844 72.976562 C 172.628906 76.0625 167.625 76.0625 164.539062 72.976562 C 161.449219 69.890625 161.449219 64.886719 164.539062 61.800781 C 167.625 58.714844 172.628906 58.714844 175.714844 61.800781 "/>
<path style=" stroke:none;fill-rule:nonzero;fill:rgb(18.823242%,18.823242%,18.823242%);fill-opacity:1;" d="M 168.613281 69.148438 L 168.613281 68.648438 L 169.910156 68.648438 L 169.910156 67.320312 L 170.425781 67.320312 L 170.425781 68.648438 L 171.738281 68.648438 L 171.738281 69.148438 L 170.425781 69.148438 L 170.425781 70.460938 L 169.910156 70.460938 L 169.910156 69.148438 Z M 168.613281 69.148438 "/>
<path style="fill:none;stroke-width:0.43903;stroke-linecap:round;stroke-linejoin:miter;stroke:rgb(0%,0%,0%);stroke-opacity:1;stroke-miterlimit:10;" d="M 19.976562 75.292969 L 19.976562 83.195312 L 170.125 83.195312 L 170.125 79.636719 "/>
<path style="fill-rule:nonzero;fill:rgb(0%,0%,0%);fill-opacity:1;stroke-width:0.43903;stroke-linecap:butt;stroke-linejoin:miter;stroke:rgb(0%,0%,0%);stroke-opacity:1;stroke-miterlimit:10;" d="M 170.125 76.125 L 168.808594 79.636719 L 171.441406 79.636719 Z M 170.125 76.125 "/>
<path style="fill:none;stroke-width:0.43903;stroke-linecap:round;stroke-linejoin:miter;stroke:rgb(0%,0%,0%);stroke-opacity:1;stroke-miterlimit:10;" d="M 19.976562 8.121094 L 19.976562 0.21875 L 170.125 0.21875 L 170.125 3.773438 "/>
<path style="fill-rule:nonzero;fill:rgb(0%,0%,0%);fill-opacity:1;stroke-width:0.43903;stroke-linecap:butt;stroke-linejoin:miter;stroke:rgb(0%,0%,0%);stroke-opacity:1;stroke-miterlimit:10;" d="M 170.125 7.285156 L 171.441406 3.773438 L 168.808594 3.773438 Z M 170.125 7.285156 "/>
<path style=" stroke:none;fill-rule:nonzero;fill:rgb(0%,0%,0%);fill-opacity:1;" d="M 21.128906 42.757812 L 19.910156 42.757812 L 19.910156 43.976562 L 21.128906 43.976562 Z M 21.128906 39.117188 L 19.910156 39.117188 L 19.910156 40.335938 L 21.128906 40.335938 Z M 21.128906 35.460938 L 19.910156 35.460938 L 19.910156 36.679688 L 21.128906 36.679688 Z M 21.128906 35.460938 "/>
<g clip-path="url(#clip1)" clip-rule="nonzero">
<path style="fill:none;stroke-width:0.43903;stroke-linecap:round;stroke-linejoin:miter;stroke:rgb(0%,0%,0%);stroke-opacity:1;stroke-miterlimit:10;" d="M 178.027344 16.023438 L 185.929688 16.023438 L 185.929688 87.144531 L 0.21875 87.144531 L 0.21875 41.707031 L 3.777344 41.707031 "/>
</g>
<path style="fill-rule:nonzero;fill:rgb(0%,0%,0%);fill-opacity:1;stroke-width:0.43903;stroke-linecap:butt;stroke-linejoin:miter;stroke:rgb(0%,0%,0%);stroke-opacity:1;stroke-miterlimit:10;" d="M 7.289062 41.707031 L 3.777344 40.386719 L 3.777344 43.023438 Z M 7.289062 41.707031 "/>
<path style=" stroke:none;fill-rule:nonzero;fill:rgb(0%,0%,0%);fill-opacity:1;" d="M 83.925781 59.828125 L 88.222656 59.828125 L 86.457031 64.875 L 85.722656 64.875 Z M 84.785156 60.390625 L 86.097656 64.21875 L 87.378906 60.390625 Z M 84.785156 60.390625 "/>
<path style=" stroke:none;fill-rule:nonzero;fill:rgb(0%,0%,0%);fill-opacity:1;" d="M 88.179688 59.523438 L 88.179688 62.242188 L 88.617188 62.242188 L 88.617188 60.710938 C 88.617188 60.585938 88.632812 60.472656 88.664062 60.367188 C 88.703125 60.265625 88.757812 60.175781 88.820312 60.101562 C 88.882812 60.019531 88.964844 59.957031 89.070312 59.914062 C 89.171875 59.875 89.292969 59.851562 89.429688 59.851562 C 89.59375 59.851562 89.726562 59.90625 89.820312 60.007812 C 89.921875 60.101562 89.976562 60.234375 89.976562 60.398438 L 89.976562 62.242188 L 90.429688 62.242188 L 90.429688 60.445312 C 90.429688 60.300781 90.414062 60.171875 90.382812 60.054688 C 90.351562 59.929688 90.296875 59.828125 90.226562 59.742188 C 90.152344 59.648438 90.054688 59.582031 89.929688 59.539062 C 89.8125 59.488281 89.667969 59.460938 89.492188 59.460938 C 89.085938 59.460938 88.789062 59.625 88.601562 59.945312 L 88.601562 59.523438 Z M 88.179688 59.523438 "/>
<path style="fill:none;stroke-width:0.43903;stroke-linecap:round;stroke-linejoin:round;stroke:rgb(0%,0%,0%);stroke-opacity:1;stroke-miterlimit:10;" d="M 119.289062 23.925781 C 118.261719 25.546875 117.75 27.078125 118.402344 28.121094 C 120.515625 31.511719 131.617188 31.550781 134.125 28.234375 "/>
<path style="fill-rule:nonzero;fill:rgb(0%,0%,0%);fill-opacity:1;stroke-width:0.43903;stroke-linecap:butt;stroke-linejoin:miter;stroke:rgb(0%,0%,0%);stroke-opacity:1;stroke-miterlimit:10;" d="M 133.675781 24.75 L 132.820312 28.402344 L 135.433594 28.066406 Z M 133.675781 24.75 "/>
<path style="fill:none;stroke-width:0.43903;stroke-linecap:round;stroke-linejoin:round;stroke:rgb(0%,0%,0%);stroke-opacity:1;stroke-miterlimit:10;" d="M 120.042969 59.484375 C 118.917969 57.574219 118.335938 55.730469 119.117188 54.511719 C 121.457031 50.863281 132.785156 50.863281 134.921875 54.511719 C 135.078125 54.777344 135.167969 55.074219 135.199219 55.394531 "/>
<path style="fill-rule:nonzero;fill:rgb(0%,0%,0%);fill-opacity:1;stroke-width:0.43903;stroke-linecap:butt;stroke-linejoin:miter;stroke:rgb(0%,0%,0%);stroke-opacity:1;stroke-miterlimit:10;" d="M 134.003906 58.703125 L 136.4375 55.84375 L 133.960938 54.949219 Z M 134.003906 58.703125 "/>
<g clip-path="url(#clip2)" clip-rule="nonzero">
<path style="fill:none;stroke-width:0.43903;stroke-linecap:round;stroke-linejoin:round;stroke:rgb(0%,0%,0%);stroke-opacity:1;stroke-miterlimit:10;" d="M 178.027344 67.382812 L 185.929688 67.378906 "/>
</g>
<path style=" stroke:none;fill-rule:nonzero;fill:rgb(0%,0%,0%);fill-opacity:1;" d="M 127.816406 42.757812 L 126.597656 42.757812 L 126.597656 43.976562 L 127.816406 43.976562 Z M 127.816406 39.117188 L 126.597656 39.117188 L 126.597656 40.335938 L 127.816406 40.335938 Z M 127.816406 35.460938 L 126.597656 35.460938 L 126.597656 36.679688 L 127.816406 36.679688 Z M 127.816406 35.460938 "/>
<path style=" stroke:none;fill-rule:nonzero;fill:rgb(0%,0%,0%);fill-opacity:1;" d="M 88.300781 42.757812 L 87.082031 42.757812 L 87.082031 43.976562 L 88.300781 43.976562 Z M 88.300781 39.117188 L 87.082031 39.117188 L 87.082031 40.335938 L 88.300781 40.335938 Z M 88.300781 35.460938 L 87.082031 35.460938 L 87.082031 36.679688 L 88.300781 36.679688 Z M 88.300781 35.460938 "/>
<path style=" stroke:none;fill-rule:nonzero;fill:rgb(0%,0%,0%);fill-opacity:1;" d="M 171.277344 42.757812 L 170.058594 42.757812 L 170.058594 43.976562 L 171.277344 43.976562 Z M 171.277344 39.117188 L 170.058594 39.117188 L 170.058594 40.335938 L 171.277344 40.335938 Z M 171.277344 35.460938 L 170.058594 35.460938 L 170.058594 36.679688 L 171.277344 36.679688 Z M 171.277344 35.460938 "/>
<path style=" stroke:none;fill-rule:nonzero;fill:rgb(0%,0%,0%);fill-opacity:1;" d="M 40.886719 42.757812 L 39.667969 42.757812 L 39.667969 43.976562 L 40.886719 43.976562 Z M 40.886719 39.117188 L 39.667969 39.117188 L 39.667969 40.335938 L 40.886719 40.335938 Z M 40.886719 35.460938 L 39.667969 35.460938 L 39.667969 36.679688 L 40.886719 36.679688 Z M 40.886719 35.460938 "/>
</g>
</svg>
